<svg width="1200" height="600" xmlns="http://www.w3.org/2000/svg">
  <!-- Фон -->
  <rect width="1200" height="450" fill="#a8d8e8"/>
  <rect y="450" width="1200" height="150" fill="#f5a742"/>
  
  <!-- Миниатюрная корзина -->
  <g transform="translate(900, 300)">
    <!-- Основа корзины -->
    <path d="M 0,0 L 100,0 L 120,80 L -20,80 Z" fill="none" stroke="#c27e00" stroke-width="4"/>
    <!-- Колесики -->
    <circle cx="0" cy="95" r="12" fill="#c0c0c0" stroke="#555"/>
    <circle cx="100" cy="95" r="12" fill="#c0c0c0" stroke="#555"/>
    <!-- Ручка корзины -->
    <path d="M 0,10 C -20,-20 -20,-40 0,-40 L 100,-40 C 120,-40 120,-20 100,10" fill="none" stroke="#c27e00" stroke-width="4"/>
    
    <!-- Пакет в корзине -->
    <rect x="20" y="-30" width="60" height="70" fill="#ff4500" stroke="#000" stroke-width="1"/>
    <!-- Ручки пакета -->
    <path d="M 25,0 C 25,-10 30,-15 35,-10 L 35,0" fill="none" stroke="#fff" stroke-width="2"/>
    <path d="M 75,0 C 75,-10 70,-15 65,-10 L 65,0" fill="none" stroke="#fff" stroke-width="2"/>
  </g>
</svg> 